# Blender v2.93.2 OBJ File: ''
# www.blender.org
mtllib open box.mtl
o Cube
v 1.201942 2.477997 -1.215663
v 1.202041 0.015296 -1.215663
v 1.201942 2.477997 1.215663
v 1.202041 0.015296 1.215663
v -1.202041 2.488879 -1.215663
v -1.202041 0.015296 -1.215663
v -1.202041 2.488879 1.215663
v -1.202041 0.015296 1.215663
v 0.000000 0.015296 -1.215663
v 0.000099 2.499762 1.215663
v 0.000000 0.015296 1.215663
v 0.000099 2.499762 -1.215663
v -2.072297 3.322085 1.215663
v -1.187028 2.508943 1.215663
v -1.187028 2.508943 -1.215663
v -2.072297 3.322085 -1.215663
v 1.181014 2.449413 -1.215663
v 1.181014 2.449413 1.215663
v 2.080168 3.247175 -1.215663
v 2.080168 3.247175 1.215663
vt 0.375000 0.875000
vt 0.625000 0.875000
vt 0.625000 1.000000
vt 0.375000 1.000000
vt 0.375000 0.000000
vt 0.625000 0.000000
vt 0.625000 0.250000
vt 0.375000 0.250000
vt 0.250000 0.500000
vt 0.375000 0.500000
vt 0.375000 0.750000
vt 0.250000 0.750000
vt 0.625000 0.500000
vt 0.625000 0.750000
vt 0.375000 0.375000
vt 0.625000 0.375000
vt 0.125000 0.500000
vt 0.125000 0.750000
vt 0.750000 0.500000
vt 0.875000 0.500000
vt 0.875000 0.750000
vt 0.750000 0.750000
vt 0.625000 0.500000
vt 0.625000 0.750000
vt 0.750000 0.500000
vt 0.750000 0.750000
vt 0.625000 0.000000
vt 0.625000 0.250000
vn 0.0000 -0.0000 1.0000
vn -1.0000 0.0000 0.0000
vn 0.0000 -1.0000 0.0000
vn 1.0000 0.0000 0.0000
vn 0.0000 -0.0000 -1.0000
vn -0.6765 -0.7365 0.0000
vn -0.8069 0.5907 0.0000
vn 0.6637 -0.7480 0.0000
vn -0.8007 0.5991 0.0000
usemtl Material
s off
f 11/1/1 10/2/1 7/3/1 8/4/1
f 8/5/2 7/6/2 5/7/2 6/8/2
f 9/9/3 2/10/3 4/11/3 11/12/3
f 2/10/4 1/13/4 3/14/4 4/11/4
f 9/15/5 12/16/5 1/13/5 2/10/5
f 6/8/5 5/7/5 12/16/5 9/15/5
f 6/17/3 9/9/3 11/12/3 8/18/3
f 4/11/1 3/14/1 10/2/1 11/1/1
f 16/19/6 15/20/6 14/21/6 13/22/6
f 3/14/7 1/13/7 17/23/7 18/24/7
f 17/23/8 19/25/8 20/26/8 18/24/8
f 5/7/9 7/6/9 14/27/9 15/28/9
